<svg xmlns="http://www.w3.org/2000/svg" xmlns:xlink="http://www.w3.org/1999/xlink" viewBox="0 0 400 300"><defs><style>.a{fill:#e93d42;}.b{fill:#231f20;}.c,.o{fill:#fff;}.c,.f{stroke:#231f20;stroke-width:0.5px;}.d,.e{fill:#225d9a;}.e{stroke:#225d9a;stroke-width:0.75px;}.f{fill:#ef3f43;}.g,.n,.p{fill:none;}.h{fill:#fdd7b2;}.i{fill:#e8c0a3;}.j{fill:#eeeabe;}.k{fill:#fff3e4;}.l{fill:#d8e3e1;}.m{fill:#dbeabb;}.n{stroke:#e72d44;stroke-miterlimit:10;}.p{stroke:#e93d43;stroke-dasharray:3 4;}</style><symbol id="a" viewBox="0 0 4.31 7.88"><polygon class="a" points="2.16 0 1.44 3.94 0 7.88 2.16 6.89 4.31 7.88 2.88 3.94 2.16 0"/></symbol><symbol id="c" viewBox="0 0 22.28 25.5"><path class="f" d="M7.72,9c0,.17-.08.31-.17.31H6.83c-.09,0-.17-.14-.16-.31v-.7a.17.17,0,0,1,.17-.17h.71a.17.17,0,0,1,.17.17Z"/><polygon class="f" points="7.56 10.4 6.79 10.39 6.8 9.26 7.58 9.27 7.56 10.4"/><path class="f" d="M4.25,12.15c0,.17-.08.31-.17.3H3.36c-.1,0-.17-.14-.16-.31v-.7a.17.17,0,0,1,.17-.16h.72a.16.16,0,0,1,.16.16Z"/><polygon class="f" points="4.09 13.59 3.32 13.58 3.33 12.44 4.11 12.46 4.09 13.59"/><path class="f" d="M14.89,9c0,.17.08.31.17.3h.71c.1,0,.17-.14.16-.31v-.7a.16.16,0,0,0-.17-.16H15a.15.15,0,0,0-.16.17Z"/><polygon class="f" points="15.04 10.4 15.82 10.39 15.8 9.26 15.03 9.27 15.04 10.4"/><path class="f" d="M18.36,12.15c0,.17.08.31.18.3h.71c.09,0,.16-.14.16-.31v-.7a.16.16,0,0,0-.17-.16h-.71a.17.17,0,0,0-.17.17Z"/><polygon class="f" points="18.51 13.59 19.29 13.58 19.27 12.44 18.5 12.46 18.51 13.59"/><path class="f" d="M11.14,25.1c.13,0,.16-.58.21-.86.45.11,2.83.78,3.6,1,.27.07.32,0,.31-.55a.65.65,0,0,0-.22-.57c-.48-.47-2.23-2-3.14-2.92a50,50,0,0,0,.47-5.82c0-.53.1-1.72.08-3.09,3.24.71,5.48,2.3,9.44,4.84.17.13.18-1.37,0-1.54-1.09-1-8.6-8-9.42-8.72,0-2.57-.12-6.61-1.32-6.61s-1.35,4-1.33,6.61C9,7.54,1.49,14.62.4,15.59c-.2.17-.19,1.67,0,1.54,4-2.55,6.19-4.14,9.43-4.84,0,1.36.09,2.56.08,3.09a49.85,49.85,0,0,0,.48,5.81c-.91.89-2.66,2.46-3.15,2.93a.65.65,0,0,0-.22.57c0,.5,0,.62.31.55.77-.21,3.15-.88,3.61-1C11,24.52,11,25.1,11.14,25.1Z"/></symbol><symbol id="e" viewBox="0 0 4.3 4.3"><circle class="b" cx="2.15" cy="2.15" r="2.15"/></symbol><symbol id="f" viewBox="0 0 6.5 6.5"><circle class="c" cx="3.25" cy="3.25" r="3"/><circle class="b" cx="3.28" cy="3.28" r="2.02"/></symbol><symbol id="k" viewBox="0 0 12.83 24.36"><path class="d" d="M5,16.1c.09,0,.13,0,.17-.08a1.14,1.14,0,0,1,.42-.5c.08,0,.12,0,.12,0,0,1.28.46,2.42,1.85,4.51a11.57,11.57,0,0,1,1.16,2c0,.09,0,.08.06,0,.11-.49.26-1.42.37-2.33.53-4.26.76-5.19,1.07-6,.51-1.36,1.3-2.1,2-2.1a.52.52,0,0,1,.59.48.83.83,0,0,1-.2.51.3.3,0,0,1-.32.09.74.74,0,0,0-.28,0c-.59,0-1.25.62-1.73,2.52-.28,1.19-.4,1.9-.91,5.33-.11.73-.28,1.78-.34,2.1a2.54,2.54,0,0,1-.2.63c-.06.14-.15.39-.29.65s-.22.12-.22,0a3.08,3.08,0,0,0-.52-1.51c-.32-.62-1.38-2-1.73-2.69a6.3,6.3,0,0,1-.82-2.12c0-.16-.06-.16-.08,0-.23,3.18-.6,4.56-1.08,5.42a2.18,2.18,0,0,1-1.84,1.36c-.51,0-.82-.32-.68-.74a.94.94,0,0,1,.31-.45c.12-.09.23-.12.31-.08a.78.78,0,0,0,.45.12c1,0,1.41-.74,1.79-2.72a21.6,21.6,0,0,0,.29-2.29,10,10,0,0,1,.11-1.08c0-.17,0-.22-.09-.25a5.81,5.81,0,0,0-1.51-.12c-1.53,0-2.32.65-2.35,2,0,1.05.46,1.39.57,1.45a.18.18,0,0,1,0,.29.74.74,0,0,1-.57.33c-.65,0-.93-.71-.93-1.33a3,3,0,0,1,1-2.15,4.52,4.52,0,0,1,3.35-1.24A3.76,3.76,0,0,1,5,16.1Z"/><line class="e" x1="7.09" y1="13.56" x2="7.09" y2="5.02"/><path class="d" d="M7.06,5.19,5.18,6.33l0-.06L6.35,3.21,7.06,0l.71,3.21L9,6.27l0,.06Z"/></symbol></defs><title>8DCanadaNatlParks17</title><polygon class="g" points="172.91 291.36 109.21 276.32 101.36 302.83 101.36 302.83 109.21 276.33 172.91 291.36"/><polygon class="h" points="109.21 276.32 172.91 291.36 173.42 290.88 173.93 290.42 173.42 289.47 171.36 284.31 171.36 283.84 169.82 281.96 164.69 278.68 161.09 270.69 161.09 270.22 159.55 262.24 160.06 258.48 163.66 254.72 166.74 239.69 167.25 225.14 163.15 214.8 162.63 214.34 162.12 213.87 161.61 213.4 160.58 212.93 159.04 212.93 158.01 212.93 149.28 200.25 149.28 196.02 149.79 195.55 149.28 192.26 149.28 191.79 140.54 177.71 137.47 174.42 134.89 172.54 134.89 171.6 134.38 171.13 134.38 168.31 134.38 167.84 134.89 167.38 134.89 166.9 135.41 166.9 135.41 165.96 135.41 165.5 129.76 147.18 129.25 146.71 128.73 146.71 128.73 146.24 127.19 146.24 126.68 146.71 125.14 147.18 124.11 148.12 120 139.2 118.97 136.85 118.46 136.38 112.81 126.52 106.65 125.11 106.13 124.64 103.05 120.88 103.05 120.41 102.54 119.47 102.02 118.06 102.02 117.13 102.02 116.65 102.54 116.19 103.05 116.19 103.56 116.19 104.59 115.72 105.62 114.78 106.13 114.31 106.13 113.84 106.65 113.37 106.65 112.43 106.65 111.96 106.13 111.49 101 107.73 98.43 107.73 95.86 108.67 92.26 109.61 91.75 109.61 91.75 109.14 91.75 106.79 92.26 97.4 92.26 96.93 92.26 96.46 92.78 96.46 93.29 95.99 93.81 95.99 94.32 95.52 94.32 95.05 94.32 94.58 94.32 91.77 94.32 91.3 93.81 86.6 87.13 69.23 87.13 68.75 86.1 67.35 84.05 65 83.53 64.53 83.02 64.53 82.5 65 81.48 66.88 81.48 68.28 80.96 68.75 80.45 68.75 75.31 64.06 74.8 64.06 74.8 63.59 73.77 59.83 67.1 53.73 64.53 48.56 64.53 46.21 68.12 41.99 65.04 34.94 64.53 30.71 77.3 -2.46 -3 -2.33 -2.67 244 77.88 268.34 109.21 276.32"/><polygon class="i" points="64.53 30.71 65.04 34.94 68.12 41.99 64.53 46.21 64.53 48.56 67.1 53.73 73.77 59.83 74.8 63.59 74.8 64.06 75.31 64.06 80.45 68.75 80.96 68.75 81.48 68.28 81.48 66.88 82.5 65 83.02 64.53 83.53 64.53 84.05 65 86.1 67.35 87.13 68.75 87.13 69.23 93.81 86.6 94.32 91.3 94.32 91.77 94.32 94.58 94.32 95.05 94.32 95.52 93.81 95.99 93.29 95.99 92.78 96.46 92.26 96.46 92.26 96.93 92.26 97.4 91.75 106.79 91.75 109.14 91.75 109.61 92.26 109.61 95.86 108.67 98.43 107.73 101 107.73 106.13 111.49 106.65 111.96 106.65 112.43 106.65 113.37 106.13 113.84 106.13 114.31 105.62 114.78 104.59 115.72 103.56 116.19 103.05 116.19 102.54 116.19 102.02 116.65 102.02 117.13 102.02 118.06 102.54 119.47 103.05 120.41 103.05 120.88 106.13 124.64 106.65 125.11 112.81 126.52 118.46 136.38 118.97 136.85 120 139.2 124.11 148.12 125.14 147.18 126.68 146.71 127.19 146.24 128.73 146.24 128.73 146.71 129.25 146.71 129.76 147.18 135.41 165.5 135.41 165.96 135.41 166.9 134.89 166.9 134.89 167.38 134.38 167.84 134.38 168.31 134.38 171.13 134.89 171.6 134.89 172.54 137.47 174.42 140.54 177.71 149.28 191.79 149.28 192.26 149.79 195.55 149.28 196.02 149.28 200.25 158.01 212.93 159.04 212.93 160.58 212.93 161.61 213.4 162.12 213.87 162.63 214.34 163.15 214.8 167.25 225.14 166.74 239.69 163.66 254.72 160.06 258.48 159.55 262.24 161.09 270.22 161.09 270.69 164.69 278.68 169.82 281.96 171.36 283.84 171.36 284.31 173.42 289.47 173.93 290.42 173.42 290.88 172.91 291.36 228.54 302.62 306.13 302.49 316.72 253.32 318.78 245.8 329.57 194.61 331.11 188.51 332.65 182.4 338.3 157.04 339.84 149.53 341.38 143.43 350.11 103.04 351.14 98.34 353.19 90.83 354.73 83.31 356.27 75.8 360.9 56.55 362.44 49.03 365.52 35.41 367.57 27.9 367.57 26.49 370.14 16.16 371.69 8.64 373.22 2.54 374.61 -2.95 77.3 -2.46 64.53 30.71"/><polygon class="j" points="371.69 8.64 370.14 16.16 367.57 26.49 367.57 27.9 365.52 35.41 362.44 49.03 360.9 56.55 356.27 75.8 354.73 83.31 353.19 90.83 351.14 98.34 350.11 103.04 341.38 143.43 339.84 149.53 338.3 157.04 332.65 182.4 331.11 188.51 329.57 194.61 318.78 245.8 316.72 253.32 306.13 302.49 403 302.33 402.6 -3 374.61 -2.95 373.22 2.54 371.69 8.64"/><polygon class="k" points="109.21 276.33 101.36 302.83 228.54 302.62 172.91 291.36 109.21 276.33"/><polygon class="l" points="77.88 268.34 66.88 302.88 101.36 302.83 109.21 276.32 77.88 268.34"/><polygon class="m" points="-2.67 244 -2.6 303 66.88 302.88 77.88 268.34 -2.67 244"/><path class="n" d="M196.8,207.92c-22.74,1.21-31-23-31-23"/><path class="n" d="M165.79,184.89c-2.27-1.51-10.68-5.73-17.5-15a48.6,48.6,0,0,1-9.18-25.21c-23.89-22.86-24.32-55.82-24.32-55.82"/><use width="4.31" height="7.88" transform="translate(133.06 132.64) rotate(148.66) scale(1.57)" xlink:href="#a"/><use width="4.31" height="7.88" transform="translate(183.13 202) rotate(133.88) scale(1.57)" xlink:href="#a"/><path class="n" d="M117,89.26c23.08,17.65,101.36,22.17,122.17,19.91"/><line x1="177.98" y1="105.03" x2="177.98" y2="103.65"/><path d="M178,105.12h0a.1.1,0,0,0,.1-.1v-1.38a.1.1,0,0,0-.1-.1h0a.1.1,0,0,0-.1.1V105A.1.1,0,0,0,178,105.12Z"/><path d="M178,110.23l11.83,0c.64,0,.73-.23.73-.83s0-3.49,0-4.5a2.77,2.77,0,0,0-.26-1.08c-.23-.53-.46-1.08-.94-2.18.16-.17-.07-1.84-1.12-1.84H178c-8.56,0-5.82,0-11.09,0-1.34,0-1.64.16-1.38.62.09.16.67.69,1.2,1.26-.48,1.1-.72,1.66-.94,2.19a2.78,2.78,0,0,0-.25,1.08c0,1,0,3.91,0,4.5s.09.83.74.83Z"/><path d="M165.46,109.42c0-.26,0-.95,0-1.73,0-1,0-2.2,0-2.77a2.86,2.86,0,0,1,.26-1.12l.2-.46.72-1.67L166,101a4.8,4.8,0,0,1-.55-.6.47.47,0,0,1-.06-.46c.13-.22.54-.3,1.52-.31h21.38a1.18,1.18,0,0,1,1.06.82,1.89,1.89,0,0,1,.16,1.12c.38.87.61,1.39.8,1.84l.13.3a2.86,2.86,0,0,1,.26,1.12c0,.58,0,1.78,0,2.83,0,.75,0,1.41,0,1.66a1,1,0,0,1-.18.74.87.87,0,0,1-.65.18H188.3l-10.32,0H166.29C165.58,110.34,165.46,110.06,165.46,109.42ZM178,99.88H166.89c-.53,0-1.25,0-1.35.21,0,0,0,.08.06.27a5.62,5.62,0,0,0,.52.56c.2.2.43.44.66.68l0,0,0,.06-.75,1.72-.2.46a2.67,2.67,0,0,0-.24,1c0,.57,0,1.74,0,2.77,0,.78,0,1.48,0,1.74,0,.58.07.73.64.73H178l10.32,0h1.52a.71.71,0,0,0,.51-.13c.11-.11.13-.31.13-.6s0-.91,0-1.67c0-1.05,0-2.25,0-2.83a2.67,2.67,0,0,0-.25-1l-.13-.3c-.19-.45-.42-1-.82-1.88l0-.06,0,0a1.83,1.83,0,0,0-.23-1.13,1,1,0,0,0-.81-.55Z"/><path class="o" d="M175.61,110.3h.19v-.82a2.53,2.53,0,0,0-5.06,0v.8h.19v-.8a2.34,2.34,0,0,1,4.67,0Z"/><circle cx="173.28" cy="109.48" r="1.95"/><path class="o" d="M171.23,109.48a2,2,0,1,1,2,2A2.05,2.05,0,0,1,171.23,109.48Zm.19,0a1.85,1.85,0,1,0,1.86-1.86A1.85,1.85,0,0,0,171.42,109.48Z"/><path class="o" d="M173.28,110.18a.7.7,0,1,1,.7-.7A.7.7,0,0,1,173.28,110.18Z"/><path class="o" d="M167.94,104.67a.49.49,0,0,1-.5-.49v-2.13a.5.5,0,0,1,.5-.5h2a.5.5,0,0,1,.5.5v2.13a.49.49,0,0,1-.5.49Z"/><rect x="167.45" y="102.72" width="3.03" height="0.19"/><rect x="168.87" y="101.56" width="0.19" height="1.27"/><path class="o" d="M171.62,104.67a.49.49,0,0,1-.5-.49v-2.13a.49.49,0,0,1,.5-.5h2a.5.5,0,0,1,.5.5v2.13a.49.49,0,0,1-.5.49Z"/><rect x="171.12" y="102.72" width="3.03" height="0.19"/><rect x="172.54" y="101.56" width="0.19" height="1.27"/><path class="o" d="M175.29,104.67a.49.49,0,0,1-.49-.49v-2.13a.49.49,0,0,1,.49-.5h2a.5.5,0,0,1,.5.5v2.13a.49.49,0,0,1-.5.49Z"/><rect x="174.8" y="102.72" width="3.03" height="0.19"/><rect x="176.22" y="101.56" width="0.19" height="1.27"/><path class="o" d="M165.76,105.92c0-.38,0-.71,0-.94a2.79,2.79,0,0,1,.25-1.08l.78-1.81v3.33a.5.5,0,0,1-.5.5Z"/><path d="M165.79,109.58a.1.1,0,0,0,.1-.1c0-.26,0-1,0-1.75,0-1,0-2.19,0-2.76a2.73,2.73,0,0,1,.25-1l.19-.45c.18-.42.4-.93.75-1.73a.1.1,0,0,0,0-.13.1.1,0,0,0-.13,0c-.35.8-.57,1.31-.75,1.73l-.19.45a2.92,2.92,0,0,0-.26,1.12c0,.57,0,1.73,0,2.76,0,.79,0,1.48,0,1.74A.1.1,0,0,0,165.79,109.58Z"/><path d="M165.77,110.72a.5.5,0,0,1-.5-.5v-1.45a.49.49,0,0,1,.5-.49h.91a.49.49,0,0,1,.5.49v1.45a.5.5,0,0,1-.5.5Z"/><path class="o" d="M165.18,110.22v-1.45a.59.59,0,0,1,.59-.59h.91a.59.59,0,0,1,.59.59v1.45a.59.59,0,0,1-.59.59h-.91A.59.59,0,0,1,165.18,110.22Zm.59-1.84a.4.4,0,0,0-.4.39v1.45a.4.4,0,0,0,.4.4h.91a.4.4,0,0,0,.4-.4v-1.45a.4.4,0,0,0-.4-.39Z"/><path class="o" d="M180.55,110.32h.19v-.83a2.31,2.31,0,0,1,2.33-2.27h0a2.35,2.35,0,0,1,1.67.68,2.21,2.21,0,0,1,.66,1.57v.8h.19v-.8a2.4,2.4,0,0,0-.71-1.71,2.54,2.54,0,0,0-1.81-.74h0a2.5,2.5,0,0,0-2.53,2.46Z"/><circle cx="183.08" cy="109.48" r="1.95" transform="translate(-0.18 0.29) rotate(-0.09)"/><path class="o" d="M181.63,110.93a2,2,0,0,1-.6-1.44,2,2,0,1,1,4.09,0,2,2,0,0,1-2,2h0A2,2,0,0,1,181.63,110.93Zm-.41-1.44a1.85,1.85,0,0,0,1.85,1.85h0a1.85,1.85,0,0,0,0-3.71A1.86,1.86,0,0,0,181.23,109.49Z"/><circle class="o" cx="183.08" cy="109.48" r="0.7" transform="matrix(1, 0, 0, 1, -0.29, 0.49)"/><rect class="o" x="185.86" y="101.55" width="3.03" height="3.12" rx="0.5" ry="0.5" transform="translate(-0.18 0.33) rotate(-0.1)"/><polygon points="185.86 102.92 188.9 102.91 188.9 102.72 185.86 102.72 185.86 102.92"/><polygon points="187.28 102.83 187.48 102.83 187.47 101.55 187.28 101.55 187.28 102.83"/><path class="o" d="M184.73,104.68a.5.5,0,0,0,.49-.5v-2.13a.5.5,0,0,0-.5-.5h-2a.5.5,0,0,0-.5.5v2.13a.5.5,0,0,0,.49.49Z"/><polygon points="182.19 102.92 185.22 102.92 185.22 102.72 182.19 102.73 182.19 102.92"/><rect x="183.61" y="101.56" width="0.19" height="1.28"/><path class="o" d="M181.05,104.69a.5.5,0,0,0,.5-.5v-2.13a.49.49,0,0,0-.5-.49h-2a.5.5,0,0,0-.5.5v2.13a.49.49,0,0,0,.5.49Z"/><polygon points="178.51 102.93 181.55 102.92 181.55 102.73 178.51 102.73 178.51 102.93"/><rect x="179.93" y="101.57" width="0.19" height="1.27"/><path class="o" d="M190.59,105.91c0-.38,0-.71,0-.94a2.73,2.73,0,0,0-.26-1.07l-.78-1.81v3.34a.49.49,0,0,0,.5.5Z"/><path d="M190.57,109.57h0a.1.1,0,0,0,.1-.1c0-.28,0-1.06,0-1.89s0-2.07,0-2.62a2.89,2.89,0,0,0-.26-1.12l-.22-.51c-.18-.41-.39-.91-.73-1.67a.1.1,0,1,0-.18.08l.73,1.67.22.51a2.69,2.69,0,0,1,.24,1c0,.54,0,1.65,0,2.62s0,1.61,0,1.89A.1.1,0,0,0,190.57,109.57Z"/><path d="M190.59,110.71a.49.49,0,0,0,.5-.5v-1.44a.5.5,0,0,0-.5-.5h-.91a.5.5,0,0,0-.5.5v1.45a.49.49,0,0,0,.5.49Z"/><path class="o" d="M189.08,110.22v-1.45a.6.6,0,0,1,.59-.6h.91a.59.59,0,0,1,.59.6v1.44a.58.58,0,0,1-.17.42.59.59,0,0,1-.42.18h-.91A.59.59,0,0,1,189.08,110.22Zm.19-1.45v1.45a.4.4,0,0,0,.4.39h.91a.4.4,0,0,0,.28-.12.39.39,0,0,0,.11-.28v-1.44a.4.4,0,0,0-.4-.4h-.91A.4.4,0,0,0,189.27,108.77Z"/><polygon class="o" points="178.13 100.87 188.9 100.85 188.9 100.66 178.13 100.68 178.06 100.67 167.44 100.66 167.44 100.86 178.13 100.87"/><path class="o" d="M165.76,106.78a1.65,1.65,0,0,0,1.1-.29.69.69,0,0,1,.46-.16H189a.7.7,0,0,1,.46.16,1.67,1.67,0,0,0,1.1.29v-.19a1.48,1.48,0,0,1-1-.26.89.89,0,0,0-.57-.19H167.32a.88.88,0,0,0-.57.19,1.47,1.47,0,0,1-1,.26Z"/><path class="p" d="M352.78,301.48c-147.44-20.43-156.11-93.21-156.11-93.21"/><use width="22.28" height="25.5" transform="translate(253.57 259.7) rotate(126.61)" xlink:href="#c"/><path class="p" d="M400.75,168.9c-67.87-55.2-162.23-57.6-162.23-57.6"/><use width="22.28" height="25.5" transform="translate(307.33 134.16) rotate(-71.99)" xlink:href="#c"/><path class="b" d="M28.19,110.81a4.54,4.54,0,0,1,3.06.92,3.1,3.1,0,0,1,.86,2.27,2.82,2.82,0,0,1-.4,1.53,2.2,2.2,0,0,1-1,.88,3.13,3.13,0,0,1,1.66.81,2.93,2.93,0,0,1,.77,2.14,3.29,3.29,0,0,1-.94,2.43,4.55,4.55,0,0,1-3.17,1H24.51v-12Zm-.94,4.88h.45a2.57,2.57,0,0,0,1.4-.34,1.28,1.28,0,0,0,.49-1.06,1.22,1.22,0,0,0-.47-1,2.3,2.3,0,0,0-1.44-.31h-.43Zm0,5h.67a3.05,3.05,0,0,0,2.05-.49,1.33,1.33,0,0,0,.4-1,1.29,1.29,0,0,0-.38-1,3.11,3.11,0,0,0-2-.45h-.76Z"/><path class="b" d="M43.88,122.44a5.58,5.58,0,0,1-2.65.65,6.43,6.43,0,0,1-4.72-1.75,6.43,6.43,0,0,1,0-9.07A6.37,6.37,0,0,1,41,110.54a7.15,7.15,0,0,1,2.88.67v3.2a3.81,3.81,0,0,0-2.81-1.28,3.37,3.37,0,0,0-2.45.94,3.85,3.85,0,0,0-1.13,2.77,3.51,3.51,0,0,0,3.64,3.65,3.79,3.79,0,0,0,2.75-1.24Z"/><path class="b" d="M134.26,181a2.48,2.48,0,0,1,1.53.42,1.66,1.66,0,0,1,.6,1.38,1.5,1.5,0,0,1-.66,1.31,1.67,1.67,0,0,1,1.27,1.68,1.84,1.84,0,0,1-.68,1.44,2.43,2.43,0,0,1-1.6.44h-1.66V181ZM133.8,184h.56c.39,0,1.31-.08,1.31-1.11s-1.08-1.12-1.29-1.12h-.58Zm0,3h.85a1.84,1.84,0,0,0,1.17-.28,1.12,1.12,0,0,0,.44-.92,1.08,1.08,0,0,0-.57-1,2.32,2.32,0,0,0-1.13-.2h-.76Z"/><path class="b" d="M141.36,183.55h.72v4.15h-.72v-.58a1.75,1.75,0,0,1-1.42.7,2.19,2.19,0,0,1,0-4.37,1.72,1.72,0,0,1,1.42.69Zm-2.7,2.07a1.39,1.39,0,0,0,1.36,1.56,1.55,1.55,0,0,0,0-3.09A1.38,1.38,0,0,0,138.66,185.62Z"/><path class="b" d="M143.44,183.55h.72V184a1.46,1.46,0,0,1,1.19-.58,1.41,1.41,0,0,1,1.19.57,1.85,1.85,0,0,1,.24,1.11v2.57h-.72v-2.55a1.22,1.22,0,0,0-.19-.76.81.81,0,0,0-.68-.3.91.91,0,0,0-.73.32,1.75,1.75,0,0,0-.3,1.12v2.17h-.72Z"/><path class="b" d="M148.88,184.21v3.49h-.72v-3.49h-.4v-.66h.4v-1.81a1.43,1.43,0,0,1,.4-1.17,1.29,1.29,0,0,1,.83-.27,1.38,1.38,0,0,1,.51.09v.7a1.31,1.31,0,0,0-.47-.09.5.5,0,0,0-.46.22,1.25,1.25,0,0,0-.09.6v1.73h1v.66Z"/><path class="b" d="M151.48,184.21v3.49h-.72v-3.49h-.4v-.66h.4v-1.81a1.43,1.43,0,0,1,.4-1.17,1.29,1.29,0,0,1,.83-.27,1.38,1.38,0,0,1,.51.09v.7A1.31,1.31,0,0,0,152,181a.5.5,0,0,0-.46.22,1.25,1.25,0,0,0-.09.6v1.73h1v.66Z"/><path class="b" d="M105.52,69.07v4.8a2.18,2.18,0,0,1-.41,1.57,1.37,1.37,0,0,1-1.06.42,1.51,1.51,0,0,1-1.19-.49l.41-.58a1.08,1.08,0,0,0,.76.37.7.7,0,0,0,.5-.19,1.51,1.51,0,0,0,.25-1.08V69.07Z"/><path class="b" d="M110.24,71.59H111v4.15h-.72v-.58a1.75,1.75,0,0,1-1.42.7,2.19,2.19,0,0,1,0-4.37,1.72,1.72,0,0,1,1.42.69Zm-2.7,2.07a1.39,1.39,0,0,0,1.36,1.56,1.55,1.55,0,0,0,0-3.09A1.38,1.38,0,0,0,107.54,73.66Z"/><path class="b" d="M114,72.55a.64.64,0,0,0-.58-.42.46.46,0,0,0-.5.47c0,.3.2.39.67.59a2.53,2.53,0,0,1,1,.64,1,1,0,0,1,.22.67,1.32,1.32,0,0,1-1.43,1.36A1.48,1.48,0,0,1,112,74.8l.62-.26a.94.94,0,0,0,.84.68.64.64,0,0,0,.68-.66c0-.39-.28-.52-.67-.69a2.7,2.7,0,0,1-1-.61.9.9,0,0,1-.19-.61,1.11,1.11,0,0,1,1.21-1.16,1.2,1.2,0,0,1,1.14.75Z"/><path class="b" d="M116.56,78h-.72V71.59h.72v.58a1.78,1.78,0,0,1,1.42-.68,2.05,2.05,0,0,1,2,2.2,2,2,0,0,1-2,2.17,1.76,1.76,0,0,1-1.45-.7Zm2.7-4.35a1.42,1.42,0,0,0-1.36-1.56,1.44,1.44,0,0,0-1.38,1.55,1.42,1.42,0,0,0,1.39,1.54A1.4,1.4,0,0,0,119.26,73.69Z"/><path class="b" d="M124.78,74.68a2.47,2.47,0,0,1-.51.67,2,2,0,0,1-1.38.51,2,2,0,0,1-2-2.17,2,2,0,0,1,2-2.2,1.86,1.86,0,0,1,1.57.76,2.79,2.79,0,0,1,.39,1.56h-3.23a1.33,1.33,0,0,0,1.32,1.41,1.26,1.26,0,0,0,.85-.3,1.65,1.65,0,0,0,.43-.57Zm-.71-1.47a1.24,1.24,0,0,0-1.22-1.08,1.26,1.26,0,0,0-1.22,1.08Z"/><path class="b" d="M125.91,71.59h.72V72a1.15,1.15,0,0,1,.94-.55,1.52,1.52,0,0,1,.64.17l-.34.65a.74.74,0,0,0-.42-.14.7.7,0,0,0-.58.26,1.79,1.79,0,0,0-.24,1.12v2.19h-.72Z"/><path class="b" d="M172.1,44.44h-4.54l-.92,2.27h-2.88l4.84-12h2.54l4.74,12H173Zm-.76-2.12-1.48-4-1.49,4Z"/><path class="b" d="M179.58,33.58V46.71H177V33.58Z"/><path class="b" d="M184.33,33.58v6a3,3,0,0,1,2.5-1.17,4,4,0,0,1,2.79,1.08,4.29,4.29,0,0,1,1.26,3.17,4.5,4.5,0,0,1-1.26,3.22,3.61,3.61,0,0,1-2.75,1.1,2.86,2.86,0,0,1-2.54-1.24v1h-2.59V33.58Zm.41,7.65a2.07,2.07,0,0,0-.58,1.48,2,2,0,0,0,.59,1.44,2.21,2.21,0,0,0,1.48.59,2,2,0,0,0,1.35-.56,2,2,0,0,0,.63-1.48,2.07,2.07,0,0,0-.63-1.53,1.88,1.88,0,0,0-1.39-.54A1.9,1.9,0,0,0,184.75,41.23Z"/><path class="b" d="M200.73,43.14h-6a2.19,2.19,0,0,0,.49,1.37,1.74,1.74,0,0,0,1.33.5,2.13,2.13,0,0,0,1-.23,1.58,1.58,0,0,0,.56-.67l2.45.25a3.59,3.59,0,0,1-1.55,2,4.77,4.77,0,0,1-2.54.59,4.16,4.16,0,0,1-3.21-1.15,4.31,4.31,0,0,1-1.21-3.1,4.57,4.57,0,0,1,1.22-3.17,4.75,4.75,0,0,1,6.27.05,4.58,4.58,0,0,1,1.13,3.26Zm-2.4-1.55a2,2,0,0,0-.52-.94,1.9,1.9,0,0,0-2.54.07,1.8,1.8,0,0,0-.45.86Z"/><path class="b" d="M202.35,38.67h2.59v1.26a2.88,2.88,0,0,1,1-1.12,2.48,2.48,0,0,1,1.39-.34,2.61,2.61,0,0,1,.85.13L208,41a2.46,2.46,0,0,0-1.17-.29,1.69,1.69,0,0,0-1.3.54,3,3,0,0,0-.63,2.16v3.26h-2.59Z"/><path class="b" d="M212.5,40.76v5.94h-2.59V40.76H209V38.67h.9V36.08h2.59v2.59h1.6v2.09Z"/><path class="b" d="M221.38,38.67H224v8h-2.59v-1A2.68,2.68,0,0,1,219,47a3.81,3.81,0,0,1-3-1.22,4.25,4.25,0,0,1-1.17-3,4.57,4.57,0,0,1,1.24-3.24,3.87,3.87,0,0,1,2.79-1.1,3,3,0,0,1,2.52,1.17Zm-3.29,2.54a2,2,0,0,0-.59,1.46,2.07,2.07,0,0,0,.54,1.44,2.13,2.13,0,0,0,1.53.63,1.92,1.92,0,0,0,1.35-.56,2.13,2.13,0,0,0,0-3,2.17,2.17,0,0,0-1.44-.56A2,2,0,0,0,218.08,41.21Z"/><use width="4.3" height="4.3" transform="translate(136.61 142.2) scale(1.16)" xlink:href="#e"/><path class="b" d="M68.78,143.21a3.27,3.27,0,0,0-.87-.62,2.84,2.84,0,0,0-1.15-.26,2.75,2.75,0,0,0,0,5.5,2.77,2.77,0,0,0,1.24-.31,3,3,0,0,0,.77-.56v.92a3.47,3.47,0,0,1-2,.65,3.45,3.45,0,1,1,0-6.9,3.14,3.14,0,0,1,2,.66Z"/><path class="b" d="M69.71,146.35a2.2,2.2,0,1,1,2.2,2.18A2.13,2.13,0,0,1,69.71,146.35Zm.74,0a1.46,1.46,0,1,0,1.46-1.55A1.44,1.44,0,0,0,70.45,146.35Z"/><path class="b" d="M75.93,141.12v7.29h-.72v-7.29Z"/><path class="b" d="M78,146.68a1.41,1.41,0,0,0,.2.89,1,1,0,0,0,1.46,0,1.41,1.41,0,0,0,.2-.89v-2.42h.72v2.5a1.65,1.65,0,0,1-.38,1.25,1.81,1.81,0,0,1-2.54,0,1.65,1.65,0,0,1-.38-1.25v-2.5H78Z"/><path class="b" d="M81.95,144.26h.72v.44a1.2,1.2,0,0,1,1-.54,1.24,1.24,0,0,1,1.13.67,1.39,1.39,0,0,1,1.25-.67c1.23,0,1.35,1,1.35,1.62v2.63H86.7v-2.52c0-.47-.06-1.09-.74-1.09-.83,0-.92.8-.92,1.3v2.31h-.72V146c0-.29,0-1.15-.75-1.15s-.91.85-.91,1.35v2.26h-.72Z"/><path class="b" d="M89.52,148.41H88.8v-7.29h.72v3.72a1.78,1.78,0,0,1,1.42-.68,2.05,2.05,0,0,1,2,2.2,2,2,0,0,1-2,2.17,1.76,1.76,0,0,1-1.45-.7Zm2.7-2a1.42,1.42,0,0,0-1.36-1.56,1.44,1.44,0,0,0-1.38,1.55,1.42,1.42,0,0,0,1.39,1.54A1.4,1.4,0,0,0,92.21,146.36Z"/><path class="b" d="M94.42,142.18a.51.51,0,1,1-.51.51A.51.51,0,0,1,94.42,142.18Zm.36,2.08v4.15h-.72v-4.15Z"/><path class="b" d="M99.32,144.26H100v4.15h-.72v-.58a1.75,1.75,0,0,1-1.42.7,2.19,2.19,0,0,1,0-4.37,1.72,1.72,0,0,1,1.42.69Zm-2.7,2.07A1.39,1.39,0,0,0,98,147.89a1.55,1.55,0,0,0,0-3.09A1.38,1.38,0,0,0,96.62,146.33Z"/><path class="b" d="M104.65,141.74v6.67h-.74v-6.67Z"/><path class="b" d="M109.43,145.42a1.67,1.67,0,0,0-1.3-.62,1.55,1.55,0,0,0,0,3.09,1.77,1.77,0,0,0,1.34-.65v.86a2.21,2.21,0,0,1-1.32.43,2.18,2.18,0,1,1,0-4.37,2.19,2.19,0,0,1,1.29.4Z"/><path class="b" d="M114.24,147.35a2.46,2.46,0,0,1-.51.67,2,2,0,0,1-1.38.51,2,2,0,0,1-2-2.17,2,2,0,0,1,2-2.2,1.86,1.86,0,0,1,1.57.76,2.78,2.78,0,0,1,.39,1.56H111a1.33,1.33,0,0,0,1.32,1.41,1.26,1.26,0,0,0,.85-.3,1.65,1.65,0,0,0,.43-.57Zm-.71-1.47a1.24,1.24,0,0,0-1.22-1.08,1.26,1.26,0,0,0-1.22,1.08Z"/><path class="b" d="M116.12,144.92v3.49h-.72v-3.49H115v-.66h.4V142.7a1.78,1.78,0,0,1,.24-1.09A1.55,1.55,0,0,1,117,141a1.57,1.57,0,0,1,1.37.61,2,2,0,0,1,.24,1.09v.17h-.72v-.17a1.26,1.26,0,0,0-.14-.65,1,1,0,0,0-1.5,0,1.15,1.15,0,0,0-.14.65v1.56h1v.66Zm2.5-.66v4.15h-.72v-4.15Z"/><path class="b" d="M123.65,147.35a2.48,2.48,0,0,1-.51.67,2,2,0,0,1-1.38.51,2,2,0,0,1-2-2.17,2,2,0,0,1,2-2.2,1.86,1.86,0,0,1,1.57.76,2.79,2.79,0,0,1,.39,1.56h-3.23a1.33,1.33,0,0,0,1.32,1.41,1.26,1.26,0,0,0,.85-.3,1.66,1.66,0,0,0,.43-.57Zm-.71-1.47a1.24,1.24,0,0,0-1.22-1.08,1.26,1.26,0,0,0-1.22,1.08Z"/><path class="b" d="M125.51,141.12v7.29h-.72v-7.29Z"/><path class="b" d="M130,141.12h.72v7.29H130v-.58a1.75,1.75,0,0,1-1.42.7,2.19,2.19,0,0,1,0-4.37,1.71,1.71,0,0,1,1.42.69Zm-2.7,5.21a1.39,1.39,0,0,0,1.36,1.56,1.42,1.42,0,0,0,1.38-1.55,1.4,1.4,0,0,0-1.38-1.54A1.38,1.38,0,0,0,127.35,146.33Z"/><path class="b" d="M216.65,206.75a3.29,3.29,0,0,0-.87-.62,2.84,2.84,0,0,0-1.15-.26,2.75,2.75,0,0,0,0,5.5,2.76,2.76,0,0,0,1.24-.31,3,3,0,0,0,.77-.56v.92a3.47,3.47,0,0,1-2,.65,3.45,3.45,0,1,1,0-6.9,3.15,3.15,0,0,1,2,.66Z"/><path class="b" d="M221,207.8h.72V212H221v-.58a1.75,1.75,0,0,1-1.42.7,2.19,2.19,0,0,1,0-4.37,1.72,1.72,0,0,1,1.42.69Zm-2.7,2.07a1.39,1.39,0,0,0,1.36,1.56,1.55,1.55,0,0,0,0-3.09A1.38,1.38,0,0,0,218.31,209.87Z"/><path class="b" d="M223.81,204.67V212h-.72v-7.29Z"/><path class="b" d="M228.35,207.8h.72v4a2.61,2.61,0,0,1-.4,1.63,2,2,0,0,1-1.66.77,2.05,2.05,0,0,1-1.48-.56,1.87,1.87,0,0,1-.54-1.34h.71a1.31,1.31,0,0,0,.32.86,1.28,1.28,0,0,0,1,.4,1.16,1.16,0,0,0,1.1-.58,1.93,1.93,0,0,0,.23-1.06v-.6a1.75,1.75,0,0,1-1.42.7,2,2,0,0,1-1.42-.56,2.25,2.25,0,0,1-.6-1.64,2.18,2.18,0,0,1,.6-1.61,2,2,0,0,1,1.42-.56,1.73,1.73,0,0,1,1.42.69Zm-2.28.93a1.58,1.58,0,0,0-.42,1.14,1.6,1.6,0,0,0,.47,1.22,1.26,1.26,0,0,0,.89.34,1.23,1.23,0,0,0,.91-.35,1.68,1.68,0,0,0,.47-1.2,1.64,1.64,0,0,0-.44-1.17,1.33,1.33,0,0,0-.94-.37A1.29,1.29,0,0,0,226.07,208.73Z"/><path class="b" d="M233.61,207.8h.72V212h-.72v-.58a1.75,1.75,0,0,1-1.42.7,2.19,2.19,0,0,1,0-4.37,1.72,1.72,0,0,1,1.42.69Zm-2.7,2.07a1.39,1.39,0,0,0,1.36,1.56,1.55,1.55,0,0,0,0-3.09A1.38,1.38,0,0,0,230.91,209.87Z"/><path class="b" d="M235.69,207.8h.72v.45a1.15,1.15,0,0,1,.94-.55,1.52,1.52,0,0,1,.64.17l-.34.65a.74.74,0,0,0-.42-.14.69.69,0,0,0-.58.26,1.78,1.78,0,0,0-.24,1.12V212h-.72Z"/><path class="b" d="M240.27,211.56l-1.91-3.76h.82l1.47,3,1.35-3h.8l-3,6.45H239Z"/><path class="b" d="M369.36,98.79a2.93,2.93,0,0,0-2-.86,1.5,1.5,0,0,0-1.17.41,1.08,1.08,0,0,0-.31.76.84.84,0,0,0,.27.67,4.83,4.83,0,0,0,1.51.68l.9.34a4.82,4.82,0,0,1,1.64.92,3,3,0,0,1,.88,2.23,4.3,4.3,0,0,1-1.06,3,4.65,4.65,0,0,1-3.4,1.22,5.09,5.09,0,0,1-2.38-.5,7.64,7.64,0,0,1-1.76-1.31l1.44-2a7.35,7.35,0,0,0,1.12.92,2.79,2.79,0,0,0,1.51.43,1.92,1.92,0,0,0,1.26-.41,1.24,1.24,0,0,0,.43-1,1.06,1.06,0,0,0-.41-.86,5.87,5.87,0,0,0-1.4-.67l-1-.34a4,4,0,0,1-1.67-1,3,3,0,0,1-.72-2.09,3.69,3.69,0,0,1,1-2.7,3.87,3.87,0,0,1,3-1.1,5.81,5.81,0,0,1,3.57,1.19Z"/><path class="b" d="M375.84,100.87l4.11-5h3.38l-4.86,5.69,5.24,6.32h-3.56l-4.3-5.33v5.33h-2.77v-12h2.77Z"/><path class="b" d="M17.06,276.45l2.56,8,2.56-8h1.91l2.56,8,2.56-8h2.88l-4.09,12H25.65l-2.52-7.29-2.52,7.29H18.27l-4.09-12Z"/><path class="b" d="M39.76,286.19H35.22l-.92,2.27H31.42l4.84-12h2.54l4.74,12H40.66ZM39,284.06l-1.48-4-1.49,4Z"/><use width="6.5" height="6.5" transform="translate(107 80.12) scale(2.77)" xlink:href="#f"/><path class="o" d="M118.37,92.17h-5.1l2-2.18a15.44,15.44,0,0,0,1.09-1.36,2.25,2.25,0,0,0,.4-1.13.94.94,0,0,0-.26-.66.91.91,0,0,0-.61-.19.79.79,0,0,0-.61.24,1.35,1.35,0,0,0-.28.82h-1.54a2.86,2.86,0,0,1,.69-1.67,2.41,2.41,0,0,1,1.84-.69,2.37,2.37,0,0,1,1.73.63,2.23,2.23,0,0,1,.62,1.6,2.37,2.37,0,0,1-.5,1.47,8.59,8.59,0,0,1-1.07,1.15l-.7.67h2.3Z"/><use width="6.5" height="6.5" transform="translate(155.42 175.6) scale(2.77)" xlink:href="#f"/><path class="o" d="M166.78,187.65h-5.1l2-2.18a15.37,15.37,0,0,0,1.09-1.36,2.24,2.24,0,0,0,.4-1.13.94.94,0,0,0-.26-.66.91.91,0,0,0-.61-.19.78.78,0,0,0-.61.24,1.35,1.35,0,0,0-.28.82h-1.54a2.86,2.86,0,0,1,.69-1.67,2.41,2.41,0,0,1,1.84-.69,2.38,2.38,0,0,1,1.73.63,2.23,2.23,0,0,1,.62,1.6,2.37,2.37,0,0,1-.5,1.47,8.56,8.56,0,0,1-1.07,1.15l-.7.67h2.3Z"/><use width="6.5" height="6.5" transform="translate(189.35 199.58) scale(2.77)" xlink:href="#f"/><path class="o" d="M197.69,206.26h-.95V205h2.49v6.67h-1.54Z"/><path class="b" d="M224.78,91.5h-2.72v2h2.64v.7h-2.64v2.59h2.72v.7h-3.46V90.8h3.46Z"/><path class="b" d="M229.14,90.18h.72v7.29h-.72v-.58a1.75,1.75,0,0,1-1.42.7,2.19,2.19,0,0,1,0-4.37,1.72,1.72,0,0,1,1.42.69Zm-2.7,5.21a1.39,1.39,0,0,0,1.36,1.56,1.55,1.55,0,0,0,0-3.09A1.38,1.38,0,0,0,226.44,95.38Z"/><path class="b" d="M231.22,93.31h.72v.44a1.2,1.2,0,0,1,1-.54,1.24,1.24,0,0,1,1.13.67,1.38,1.38,0,0,1,1.25-.67c1.23,0,1.35,1,1.35,1.62v2.63H236V94.94c0-.47-.06-1.09-.74-1.09s-.92.8-.92,1.3v2.31h-.72V95c0-.29,0-1.15-.75-1.15s-.91.85-.91,1.35v2.26h-.72Z"/><path class="b" d="M237.81,95.4a2.2,2.2,0,1,1,2.2,2.18A2.13,2.13,0,0,1,237.81,95.4Zm.74,0A1.46,1.46,0,1,0,240,93.85,1.44,1.44,0,0,0,238.55,95.4Z"/><path class="b" d="M243.31,93.31H244v.48a1.46,1.46,0,0,1,1.19-.58,1.41,1.41,0,0,1,1.19.57,1.85,1.85,0,0,1,.24,1.11v2.57h-.72V94.91a1.22,1.22,0,0,0-.19-.76.81.81,0,0,0-.68-.3.91.91,0,0,0-.73.32,1.75,1.75,0,0,0-.3,1.12v2.17h-.72Z"/><path class="b" d="M248.75,94v3.49H248V94h-.44v-.66H248v-1.5h.72v1.5h.72V94Z"/><path class="b" d="M249.89,95.4a2.2,2.2,0,1,1,2.2,2.18A2.13,2.13,0,0,1,249.89,95.4Zm.74,0a1.46,1.46,0,1,0,1.46-1.55A1.44,1.44,0,0,0,250.63,95.4Z"/><path class="b" d="M255.39,93.31h.72v.48a1.46,1.46,0,0,1,1.19-.58,1.41,1.41,0,0,1,1.19.57,1.85,1.85,0,0,1,.24,1.11v2.57H258V94.91a1.22,1.22,0,0,0-.19-.76.81.81,0,0,0-.68-.3.91.91,0,0,0-.73.32,1.75,1.75,0,0,0-.3,1.12v2.17h-.72Z"/><use width="6.5" height="6.5" transform="translate(231.7 100.48) scale(2.77)" xlink:href="#f"/><path class="o" d="M240,107.16h-.95v-1.3h2.49v6.67H240Z"/><path class="b" d="M90.36,161.13v6H92.2v.7H89.62v-6.67Z"/><path class="b" d="M96.2,163.65h.72v4.15H96.2v-.58a1.75,1.75,0,0,1-1.42.7,2.19,2.19,0,0,1,0-4.37,1.72,1.72,0,0,1,1.42.69Zm-2.7,2.07a1.39,1.39,0,0,0,1.36,1.56,1.55,1.55,0,0,0,0-3.09A1.38,1.38,0,0,0,93.5,165.72Z"/><path class="b" d="M99,160.51v4.68l1.52-1.54h.94l-1.78,1.78,2.1,2.37h-.94l-1.66-1.89-.18.18v1.71h-.72v-7.29Z"/><path class="b" d="M106.07,166.74a2.46,2.46,0,0,1-.51.67,2,2,0,0,1-1.38.51,2,2,0,0,1-2-2.17,2,2,0,0,1,2-2.2,1.86,1.86,0,0,1,1.57.76,2.78,2.78,0,0,1,.39,1.56h-3.23a1.33,1.33,0,0,0,1.32,1.41,1.26,1.26,0,0,0,.85-.3,1.66,1.66,0,0,0,.43-.57Zm-.71-1.47a1.24,1.24,0,0,0-1.22-1.08,1.26,1.26,0,0,0-1.22,1.08Z"/><path class="b" d="M110.46,161.13v6h1.84v.7h-2.58v-6.67Z"/><path class="b" d="M112.86,165.74a2.2,2.2,0,1,1,2.2,2.18A2.13,2.13,0,0,1,112.86,165.74Zm.74,0a1.46,1.46,0,1,0,1.46-1.55A1.44,1.44,0,0,0,113.6,165.74Z"/><path class="b" d="M119.08,166.07a1.42,1.42,0,0,0,.2.89,1,1,0,0,0,1.46,0,1.41,1.41,0,0,0,.2-.89v-2.42h.72v2.5a1.65,1.65,0,0,1-.38,1.25,1.81,1.81,0,0,1-2.54,0,1.65,1.65,0,0,1-.38-1.25v-2.5h.72Z"/><path class="b" d="M123.38,161.57a.51.51,0,1,1-.51.51A.51.51,0,0,1,123.38,161.57Zm.36,2.08v4.15H123v-4.15Z"/><path class="b" d="M126.81,164.61a.64.64,0,0,0-.58-.42.46.46,0,0,0-.5.47c0,.3.2.39.67.59a2.53,2.53,0,0,1,1,.64,1,1,0,0,1,.22.67,1.32,1.32,0,0,1-1.43,1.36,1.48,1.48,0,0,1-1.45-1.06l.62-.26a.94.94,0,0,0,.84.68.64.64,0,0,0,.68-.66c0-.39-.28-.52-.67-.69a2.7,2.7,0,0,1-1-.61.9.9,0,0,1-.19-.61,1.11,1.11,0,0,1,1.21-1.16,1.2,1.2,0,0,1,1.14.75Z"/><path class="b" d="M132.29,166.74a2.46,2.46,0,0,1-.51.67,2,2,0,0,1-1.38.51,2,2,0,0,1-2-2.17,2,2,0,0,1,2-2.2,1.86,1.86,0,0,1,1.57.76,2.78,2.78,0,0,1,.39,1.56H129.1a1.33,1.33,0,0,0,1.32,1.41,1.26,1.26,0,0,0,.85-.3,1.66,1.66,0,0,0,.43-.57Zm-.71-1.47a1.24,1.24,0,0,0-1.22-1.08,1.26,1.26,0,0,0-1.22,1.08Z"/><use width="6.5" height="6.5" transform="translate(135.97 155.7) scale(2.77)" xlink:href="#f"/><path class="o" d="M144.31,162.38h-.95v-1.3h2.49v6.67h-1.54Z"/><use width="12.83" height="24.35" transform="translate(4.12 3.97) scale(1.33)" xlink:href="#k"/></svg>